
        <svg xmlns="http://www.w3.org/2000/svg" xmlns:xlink="http://www.w3.org/1999/xlink" version="1.1" width="3193.548387096774" 
        height="3156.5115750803643" viewBox="0 0 3193.548387096774 3156.5115750803643">
			<rect fill="#000000" width="3193.548387096774" height="3156.5115750803643"/>
			<g transform="scale(9.67741935483871) translate(10, 10)">
				<defs id="SvgjsDefs20491"><linearGradient id="SvgjsLinearGradient20498"><stop id="SvgjsStop20499" stop-color="#8f5e25" offset="0"></stop><stop id="SvgjsStop20500" stop-color="#fbf4a1" offset="0.5"></stop><stop id="SvgjsStop20501" stop-color="#8f5e25" offset="1"></stop></linearGradient></defs><g id="SvgjsG20492" featureKey="rootContainer" transform="matrix(2.9388568246550153,0,0,2.9388568246550153,-0.11025446391769686,0.08425770368723878)" fill="url(#SvgjsLinearGradient20498)"><path xmlns="http://www.w3.org/2000/svg" d="M104.6 41.3a52.2 52.2 0 0 0-3.5-11.2A51.1 51.1 0 0 0 44.3 1a49.6 49.6 0 0 0-5.7 1.5 49.1 49.1 0 0 0-7.9 2.7A51.6 51.6 0 0 0 6.3 77a53.7 53.7 0 0 0 4.1 6.4 57 57 0 0 0 5 5.7 51.7 51.7 0 0 0 55.3 11.5l3.3-1.4 3-1.5a50.9 50.9 0 0 0 5.8-3.8l2.7-2.1 1.2-1.1 1.1-.9 2-1.8.7-.6.6-.7 1.8-2a48.5 48.5 0 0 0 5.9-8.3 50.4 50.4 0 0 0 5.6-14.7 51.6 51.6 0 0 0 .2-20.4zM87.1 88.6l-1.2 1.1-1.2 1.1-2.6 2.1a49.5 49.5 0 0 1-5.7 3.6l-3 1.5-3.2 1.3-4.9 1.6h-.5a50.9 50.9 0 0 1-20.3.1 51.8 51.8 0 0 1-11.1-3.6A50.5 50.5 0 0 1 22.9 91a52 52 0 0 1-9.1-9.4 50.3 50.3 0 0 1-3.7-5.7c-.6-1-1.1-2-1.6-3.1s-1-2.1-1.3-3.2a50.6 50.6 0 0 1 8.6-50.8l.8-.8.5-.6.6-.6 1.2-1.1 2.4-2.1A50.5 50.5 0 0 1 62.4 3.2a48.5 48.5 0 0 1 14.7 5.2 47 47 0 0 1 8.3 5.8l2 1.8.7.6.6.7 1.8 2a49.7 49.7 0 0 1 11.3 22.9 50.8 50.8 0 0 1-.1 20.2 51.6 51.6 0 0 1-3.6 11 50.2 50.2 0 0 1-6.6 10.5l-2.1 2.4zm-44.9 13a50.1 50.1 0 0 1-13.7-5 51.8 51.8 0 0 1-6.2-4 55.2 55.2 0 0 1-5.5-4.8 49.9 49.9 0 0 1-11-53.2c.4-1.1.9-2.1 1.3-3.1l.6-1.3a50.2 50.2 0 0 0-3.4 11 51.3 51.3 0 0 0 2.4 28.5c.4 1.1.9 2.2 1.4 3.2s1 2.1 1.6 3.1a50.6 50.6 0 0 0 3.7 5.8 51.5 51.5 0 0 0 9.2 9.5 50.9 50.9 0 0 0 10.7 6.5 51 51 0 0 0 28.7 3.9 50.3 50.3 0 0 1-19.8-.1zm61.9-39.9a50.2 50.2 0 0 1-5.5 14.7 48.4 48.4 0 0 1-5.8 8.3l-1.8 2-.6.7-.7.6-1.9 1.7h.2l2.3-2.4 2.1-2.5A51.3 51.3 0 0 0 98.9 74a51.4 51.4 0 0 0 3.2-31.6 49.6 49.6 0 0 0-2.5-8.2 49.4 49.4 0 0 0-3.1-6.5 48.7 48.7 0 0 0-5.9-8.3l-1.8-2-.6-.7-.7-.6-2-1.8A49.9 49.9 0 0 0 77.3 8a49.3 49.3 0 0 0-6.5-3.2 49.8 49.8 0 0 0-8.2-2.6A52.2 52.2 0 0 0 49.9 1a50.8 50.8 0 0 1 22.7 3.2l3.2 1.3 3.1 1.6a50.1 50.1 0 0 1 5.7 3.7l2.6 2.1 1.2 1.1 1.2 1.1 2.3 2.3 2.1 2.4a50.4 50.4 0 0 1 6.5 10.5 51.6 51.6 0 0 1 3.6 11 51.1 51.1 0 0 1 0 20.3z"></path></g><g id="SvgjsG20493" featureKey="symbolFeature-0" transform="matrix(0.9999999999999999,0,0,0.9999999999999999,105,73)" fill="#02fddc"><g xmlns="http://www.w3.org/2000/svg"><circle fill="#02fddc" cx="34.336" cy="56.183" r="1.565"></circle><path fill="#02fddc" d="M89.656,60H88.9c-0.031,0,0.1,0.443,0.1,0.449V50.343C89,47.109,86.186,44,82.949,44H72.863   c-0.709,0-1.438-0.409-2.18-0.688c-3.041-1.61-4.02-3.825-2.467-5.376l6.883-5.915c1.211-1.075,1.898-2.769,1.898-4.388V7.446   C77,5.672,75.883,4,74.107,4H48.417c-1.774,0-3.211,1.556-3.214,3.331l-0.001,20.245c0.038,1.619,0.851,3.401,2.061,4.477   l7.044,5.988c1.551,1.552,0.574,3.654-2.467,5.264C51.1,43.583,50.37,44,49.661,44H37.887c-2.654,0-5.326,1.785-6.353,4.231   L30.794,50h-2.188C28.61,50,29,50.318,29,50.246v-1.603C29,47.076,27.699,46,26.58,46h-8.414C17.046,46,16,47.076,16,48.643v1.603   C16,50.318,16.134,50,16.139,50h-0.684C12.222,50,10,53.092,10,56.324v31.574C10,91.132,12.222,94,15.456,94h36.677   c2.85,1,5.924,1.6,9.131,1.6c3.205,0,6.279-0.6,9.129-1.6h12.557C86.184,94,89,91.132,89,87.898V69.667   C89,69.674,88.869,70,88.9,70h0.756C89.881,70,90,69.502,90,69.277v-8.438C90,60.615,89.881,60,89.656,60z M82.949,48   C84.07,48,85,49.223,85,50.343v5.878C83,53.195,81.264,51,78.697,48H82.949z M73,20.726C73,21.982,71.98,23,70.727,23H51.273   C50.018,23,49,21.982,49,20.726v-9.452C49,10.018,50.018,9,51.273,9h19.451C71.98,9,73,10.018,73,11.274V20.726z M65,36.322   C65,36.696,64.695,37,64.322,37h-6.646C57.305,37,57,36.696,57,36.322v-0.644C57,35.304,57.305,35,57.678,35h6.645   C64.695,35,65,35.304,65,35.678V36.322z M31,88c0,0.553-0.448,1-1,1l0,0c-0.552,0-1-0.447-1-1V65c0-0.553,0.448-1,1-1l0,0   c0.552,0,1,0.447,1,1V88z M13,60v-3.676C13,55.205,14.335,54,15.456,54h15.849c1.119,0,2.39-0.699,2.823-1.732l0.937-2.311   C35.498,48.926,36.768,48,37.887,48h5.941c-3.704,3-6.527,8-8.052,12H13z M61.264,92.41c-13.15,0-23.809-10.66-23.809-23.809   c0-13.149,10.659-23.809,23.809-23.809c13.148,0,23.809,10.659,23.809,23.809C85.07,81.75,74.412,92.41,61.264,92.41z"></path><path fill="#02fddc" d="M61.264,50.301c-10.107,0-18.301,8.193-18.301,18.301c0,10.105,8.193,18.301,18.301,18.301   c10.106,0,18.301-8.194,18.301-18.301C79.562,58.494,71.37,50.301,61.264,50.301z M54.996,64.376c-1.878,0-3.398-1.521-3.398-3.399   c0-1.877,1.521-3.397,3.398-3.397c1.876,0,3.398,1.521,3.398,3.397S56.872,64.376,54.996,64.376z"></path></g></g><g id="SvgjsG20494" featureKey="nameFeature-0" transform="matrix(1.0539074225566356,0,0,1.0539074225566356,52.25984080186119,177.65995589207034)" fill="#ffffff"><path d="M26.16 12 l5.24 0 l0 28 l-5.48 0 l0 -18.44 l-8.92 12.36 l-8.92 -12.36 l0 18.44 l-5.48 0 l0 -28 l5.24 0 l9.16 13.24 z M49.05 19.76 l5.64 0 l-12.16 28.64 l-5.44 0 l3.68 -8.84 l-9.16 -19.8 l5.8 0 l6 13.68 z M66.46 35.08 l1.28 4.28 c-1.6 0.64 -3.04 0.96 -4.72 0.96 c-4.64 0 -6.76 -2.88 -6.76 -7.24 l0 -8.68 l-3.4 0 l0 -4.64 l3.4 0 l0 -6.56 l5.32 0 l0 6.56 l5.92 0 l0 4.64 l-5.92 0 l0 8.68 c0 1.64 0.8 2.56 2.48 2.56 c0.92 0 1.6 -0.16 2.4 -0.56 z M74.10999999999999 22.76 c1.2 -2.36 3.52 -3.72 6.68 -3.28 l0 4.96 c-4.32 -0.68 -6.68 1.32 -6.68 6.76 l0 8.8 l-5.28 0 l0 -20.24 l5.28 0 l0 3 z M84.35999999999999 16.92 c-1.76 0 -3.16 -1.36 -3.16 -3.12 c0 -1.68 1.4 -3.04 3.16 -3.04 s3.16 1.36 3.16 3.04 c0 1.76 -1.4 3.12 -3.16 3.12 z M81.63999999999999 40 l0 -20.24 l5.32 0 l0 20.24 l-5.32 0 z M101.52999999999999 19.2 c5.6 0 9.96 4.52 9.96 10.68 c0 6.12 -4.36 10.68 -9.96 10.68 c-2.88 0 -5.08 -1.2 -6.56 -3.04 l0 10.88 l-5.28 0 l0 -28.64 l5.28 0 l0 2.44 c1.48 -1.84 3.68 -3 6.56 -3 z M100.60999999999999 35.84 c3.32 0 5.68 -2.48 5.68 -6 c0 -3.48 -2.36 -5.92 -5.68 -5.92 c-3.2 0 -5.76 2.44 -5.76 5.92 c0 3.52 2.56 6 5.76 6 z M127.41999999999999 19.76 l5.76 0 l-8.36 20.24 l-5.96 0 l-8.36 -20.24 l5.8 0 l5.56 14.4 z M136.07 16.92 c-1.76 0 -3.16 -1.36 -3.16 -3.12 c0 -1.68 1.4 -3.04 3.16 -3.04 s3.16 1.36 3.16 3.04 c0 1.76 -1.4 3.12 -3.16 3.12 z M133.35 40 l0 -20.24 l5.32 0 l0 20.24 l-5.32 0 z M151.15999999999997 40.56 c-6.48 0 -11 -4.28 -11 -10.68 c0 -6.04 4.24 -10.68 10.6 -10.68 c6.64 0 10.44 4.6 10.44 10.4 c0 0.64 0 1.24 -0.12 1.88 l-15.72 0 c0.36 2.6 2.2 4.6 5.88 4.6 c2.56 0 4.12 -1.16 4.92 -2.68 l4.76 1.4 c-1.16 2.64 -4.44 5.76 -9.76 5.76 z M145.35999999999999 28.16 l10.68 0 c-0.24 -2.48 -2.16 -4.48 -5.32 -4.48 c-3.08 0 -5.08 2.16 -5.36 4.48 z M186.89 19.76 l5.48 0 l-7 20.24 l-4.92 0 l-4.16 -12.76 l-4.16 12.76 l-4.96 0 l-6.96 -20.24 l5.48 0 l4.2 13.56 l4.16 -13.56 l4.44 0 l4.2 13.56 z"></path></g>
			</g>
		</svg>
	