<svg width="16" height="16" viewBox="0 0 16 16" fill="none" xmlns="http://www.w3.org/2000/svg">
<g clip-path="url(#clip0_108_10341)">
<path d="M2.60016 8.00008C2.60016 6.86008 3.52683 5.93341 4.66683 5.93341H7.3335V4.66675H4.66683C2.82683 4.66675 1.3335 6.16008 1.3335 8.00008C1.3335 9.84008 2.82683 11.3334 4.66683 11.3334H7.3335V10.0667H4.66683C3.52683 10.0667 2.60016 9.14008 2.60016 8.00008ZM5.3335 8.66675H10.6668V7.33341H5.3335V8.66675ZM11.3335 4.66675H8.66683V5.93341H11.3335C12.4735 5.93341 13.4002 6.86008 13.4002 8.00008C13.4002 9.14008 12.4735 10.0667 11.3335 10.0667H8.66683V11.3334H11.3335C13.1735 11.3334 14.6668 9.84008 14.6668 8.00008C14.6668 6.16008 13.1735 4.66675 11.3335 4.66675Z" fill="#4F4F4F"/>
</g>
<defs>
<clipPath id="clip0_108_10341">
<rect width="16" height="16" fill="white"/>
</clipPath>
</defs>
</svg>
