<svg width="24" height="24" viewBox="0 0 24 24" fill="none" xmlns="http://www.w3.org/2000/svg">
<path d="M17.1752 8.66347C18.7186 9.77064 20.6093 10.4221 22.6513 10.4221V6.47861C22.2648 6.47869 21.8794 6.43825 21.5013 6.35786V9.46193C19.4594 9.46193 17.569 8.81049 16.0252 7.7034V15.7509C16.0252 19.7766 12.7733 23.0399 8.76211 23.0399C7.26544 23.0399 5.87434 22.5858 4.71875 21.807C6.03766 23.1604 7.87699 24 9.91187 24C13.9233 24 17.1754 20.7367 17.1754 16.7108V8.66347H17.1752ZM18.5939 4.68499C17.8052 3.82023 17.2873 2.70267 17.1752 1.46717V0.959961H16.0854C16.3598 2.53028 17.2954 3.87187 18.5939 4.68499ZM7.25584 18.7178C6.81516 18.1379 6.57702 17.4286 6.57809 16.6992C6.57809 14.858 8.06549 13.3651 9.90055 13.3651C10.2425 13.365 10.5825 13.4176 10.9084 13.5214V9.48977C10.5275 9.43739 10.1431 9.41515 9.75888 9.4233V12.5613C9.43272 12.4575 9.09262 12.4048 8.75055 12.4051C6.91549 12.4051 5.42816 13.8979 5.42816 15.7393C5.42816 17.0414 6.17162 18.1687 7.25584 18.7178Z" fill="#FF004F"/>
<path d="M16.025 7.70332C17.5688 8.81041 19.4592 9.46185 21.501 9.46185V6.35778C20.3613 6.11414 19.3523 5.5164 18.5937 4.68499C17.2951 3.87179 16.3595 2.5302 16.0852 0.959961H13.2226V16.7106C13.2161 18.5468 11.7313 20.0336 9.90016 20.0336C8.82111 20.0336 7.86248 19.5174 7.25536 18.7178C6.17122 18.1687 5.42777 17.0413 5.42777 15.7394C5.42777 13.8981 6.91509 12.4052 8.75015 12.4052C9.10174 12.4052 9.44061 12.4602 9.75849 12.5614V9.42338C5.81775 9.50509 2.64844 12.7365 2.64844 16.7107C2.64844 18.6946 3.43767 20.4931 4.7186 21.8071C5.87419 22.5858 7.26529 23.04 8.76196 23.04C12.7732 23.04 16.0251 19.7765 16.0251 15.7509V7.70332H16.025Z" fill="black"/>
<path d="M21.5025 6.3578V5.51848C20.4748 5.52005 19.4672 5.23119 18.5952 4.68493C19.3671 5.53306 20.3835 6.11787 21.5025 6.3578ZM16.0867 0.959983C16.0605 0.809911 16.0404 0.658851 16.0265 0.507214V0H12.074V15.7508C12.0677 17.5868 10.5829 19.0736 8.75164 19.0736C8.214 19.0736 7.70638 18.9455 7.25685 18.7179C7.86397 19.5174 8.82259 20.0336 9.90164 20.0336C11.7326 20.0336 13.2177 18.5469 13.2241 16.7107V0.959983H16.0867ZM9.76014 9.42341V8.52989C9.42988 8.48459 9.09691 8.46186 8.76353 8.46202C4.75192 8.46194 1.5 11.7254 1.5 15.7508C1.5 18.2745 2.77806 20.4987 4.72017 21.807C3.43924 20.493 2.65001 18.6944 2.65001 16.7106C2.65001 12.7365 5.81924 9.50511 9.76014 9.42341Z" fill="#00F2EA"/>
</svg>
