<svg width="40" height="40" viewBox="0 0 40 40" fill="none" xmlns="http://www.w3.org/2000/svg">
<g clip-path="url(#clip0_135_16934)">
<path d="M9.99984 16.6667C8.15817 16.6667 6.6665 18.1584 6.6665 20.0001C6.6665 21.8417 8.15817 23.3334 9.99984 23.3334C11.8415 23.3334 13.3332 21.8417 13.3332 20.0001C13.3332 18.1584 11.8415 16.6667 9.99984 16.6667ZM29.9998 16.6667C28.1582 16.6667 26.6665 18.1584 26.6665 20.0001C26.6665 21.8417 28.1582 23.3334 29.9998 23.3334C31.8415 23.3334 33.3332 21.8417 33.3332 20.0001C33.3332 18.1584 31.8415 16.6667 29.9998 16.6667ZM19.9998 16.6667C18.1582 16.6667 16.6665 18.1584 16.6665 20.0001C16.6665 21.8417 18.1582 23.3334 19.9998 23.3334C21.8415 23.3334 23.3332 21.8417 23.3332 20.0001C23.3332 18.1584 21.8415 16.6667 19.9998 16.6667Z" fill="black"/>
</g>
<defs>
<clipPath id="clip0_135_16934">
<rect width="40" height="40" fill="white"/>
</clipPath>
</defs>
</svg>
