<svg width="40" height="40" viewBox="0 0 40 40" fill="none" xmlns="http://www.w3.org/2000/svg">
<path d="M29.9998 9.99992H26.6665C26.6665 6.31659 23.6832 3.33325 19.9998 3.33325C16.3165 3.33325 13.3332 6.31659 13.3332 9.99992H9.99984C8.1665 9.99992 6.6665 11.4999 6.6665 13.3333V33.3333C6.6665 35.1666 8.1665 36.6666 9.99984 36.6666H29.9998C31.8332 36.6666 33.3332 35.1666 33.3332 33.3333V13.3333C33.3332 11.4999 31.8332 9.99992 29.9998 9.99992ZM19.9998 6.66659C21.8332 6.66659 23.3332 8.16658 23.3332 9.99992H16.6665C16.6665 8.16658 18.1665 6.66659 19.9998 6.66659ZM29.9998 33.3333H9.99984V13.3333H13.3332V16.6666C13.3332 17.5833 14.0832 18.3333 14.9998 18.3333C15.9165 18.3333 16.6665 17.5833 16.6665 16.6666V13.3333H23.3332V16.6666C23.3332 17.5833 24.0832 18.3333 24.9998 18.3333C25.9165 18.3333 26.6665 17.5833 26.6665 16.6666V13.3333H29.9998V33.3333Z" fill="#9B51E0"/>
</svg>
