<svg width="40" height="40" viewBox="0 0 40 40" fill="none" xmlns="http://www.w3.org/2000/svg">
<g clip-path="url(#clip0_135_16573)">
<path d="M19.9918 3.33325C10.7835 3.33325 3.3335 10.7916 3.3335 19.9999C3.3335 29.2083 10.7835 36.6666 19.9918 36.6666C29.2002 36.6666 36.6668 29.2083 36.6668 19.9999C36.6668 10.7916 29.2002 3.33325 19.9918 3.33325ZM31.5335 13.3333H26.6168C26.0752 11.2499 25.3168 9.24992 24.3168 7.39992C27.3835 8.44992 29.9335 10.5749 31.5335 13.3333ZM20.0002 6.72492C21.3918 8.72492 22.4752 10.9499 23.1835 13.3333H16.8168C17.5252 10.9499 18.6085 8.72492 20.0002 6.72492ZM7.10016 23.3333C6.82516 22.2666 6.66683 21.1499 6.66683 19.9999C6.66683 18.8499 6.82516 17.7333 7.10016 16.6666H12.7252C12.5918 17.7583 12.5002 18.8666 12.5002 19.9999C12.5002 21.1333 12.5918 22.2416 12.7335 23.3333H7.10016ZM8.4585 26.6666H13.3752C13.9168 28.7499 14.6752 30.7499 15.6752 32.6083C12.6085 31.5583 10.0585 29.4249 8.4585 26.6666ZM13.3752 13.3333H8.4585C10.0585 10.5749 12.6085 8.44159 15.6752 7.39158C14.6752 9.24992 13.9168 11.2499 13.3752 13.3333ZM20.0002 33.2749C18.6168 31.2749 17.5335 29.0499 16.8168 26.6666H23.1835C22.4668 29.0499 21.3835 31.2749 20.0002 33.2749ZM23.9002 23.3333H16.1002C15.9418 22.2416 15.8335 21.1333 15.8335 19.9999C15.8335 18.8666 15.9418 17.7583 16.1002 16.6666H23.9002C24.0585 17.7583 24.1668 18.8666 24.1668 19.9999C24.1668 21.1333 24.0585 22.2416 23.9002 23.3333ZM24.3252 32.5999C25.3252 30.7416 26.0835 28.7499 26.6252 26.6666H31.5418C29.9335 29.4249 27.3835 31.5499 24.3252 32.5999ZM27.2668 23.3333C27.4002 22.2416 27.5002 21.1333 27.5002 19.9999C27.5002 18.8666 27.4085 17.7583 27.2668 16.6666H32.8918C33.1668 17.7333 33.3335 18.8499 33.3335 19.9999C33.3335 21.1499 33.1752 22.2666 32.8918 23.3333H27.2668Z" fill="#0FE0BA"/>
</g>
<defs>
<clipPath id="clip0_135_16573">
<rect width="40" height="40" fill="white"/>
</clipPath>
</defs>
</svg>
