<svg width="40" height="40" viewBox="0 0 40 40" fill="none" xmlns="http://www.w3.org/2000/svg">
<g clip-path="url(#clip0_68_5429)">
<path d="M25.8333 23.3333H24.5083L24.05 22.875C25.6833 20.9833 26.6667 18.525 26.6667 15.8333C26.6667 9.85 21.8167 5 15.8333 5C9.85 5 5 9.85 5 15.8333C5 21.8167 9.85 26.6667 15.8333 26.6667C18.525 26.6667 20.9833 25.6833 22.875 24.0583L23.3333 24.5167V25.8333L31.6667 34.15L34.15 31.6667L25.8333 23.3333ZM15.8333 23.3333C11.6917 23.3333 8.33333 19.975 8.33333 15.8333C8.33333 11.6917 11.6917 8.33333 15.8333 8.33333C19.975 8.33333 23.3333 11.6917 23.3333 15.8333C23.3333 19.975 19.975 23.3333 15.8333 23.3333Z" fill="white"/>
</g>
<defs>
<clipPath id="clip0_68_5429">
<rect width="40" height="40" fill="white"/>
</clipPath>
</defs>
</svg>
