<svg width="40" height="40" viewBox="0 0 40 40" fill="none" xmlns="http://www.w3.org/2000/svg">
<path d="M28.6275 14.439C31.1998 16.2843 34.3509 17.3701 37.7543 17.3701V10.7976C37.1102 10.7977 36.4677 10.7303 35.8376 10.5964V15.7698C32.4345 15.7698 29.2838 14.6841 26.7108 12.8389V26.2514C26.7108 32.961 21.291 38.3998 14.6056 38.3998C12.1112 38.3998 9.79268 37.643 7.8667 36.345C10.0649 38.6006 13.1304 39.9999 16.5219 39.9999C23.2077 39.9999 28.6278 34.5611 28.6278 27.8512V14.439H28.6275ZM30.992 7.80824C29.6774 6.36696 28.8143 4.50438 28.6275 2.44521V1.59985H26.8112C27.2684 4.21705 28.8278 6.45304 30.992 7.80824ZM12.0952 31.1963C11.3607 30.2298 10.9638 29.0476 10.9656 27.832C10.9656 24.7633 13.4446 22.2751 16.503 22.2751C17.073 22.275 17.6396 22.3626 18.1828 22.5355V15.8162C17.548 15.7289 16.9073 15.6918 16.2669 15.7054V20.9354C15.7233 20.7625 15.1565 20.6746 14.5864 20.6751C11.5279 20.6751 9.04906 23.163 9.04906 26.2322C9.04906 28.4022 10.2882 30.281 12.0952 31.1963Z" fill="#FF004F"/>
<path d="M26.7108 12.8388C29.2837 14.6839 32.4344 15.7697 35.8375 15.7697V10.5962C33.9379 10.1901 32.2563 9.19392 30.9919 7.80824C28.8276 6.4529 27.2683 4.21692 26.8111 1.59985H22.0401V27.8509C22.0293 30.9113 19.5546 33.3893 16.5027 33.3893C14.7043 33.3893 13.1066 32.5289 12.0947 31.1963C10.2878 30.281 9.04872 28.4021 9.04872 26.2323C9.04872 23.1634 11.5276 20.6753 14.586 20.6753C15.172 20.6753 15.7368 20.7669 16.2666 20.9356V15.7056C9.69869 15.8417 4.4165 21.2274 4.4165 27.8511C4.4165 31.1575 5.73189 34.155 7.86677 36.3451C9.79275 37.643 12.1112 38.3999 14.6057 38.3999C21.2912 38.3999 26.7109 32.9608 26.7109 26.2514V12.8388H26.7108Z" fill="black"/>
<path d="M35.8376 10.5963V9.19747C34.1246 9.20008 32.4453 8.71865 30.9919 7.80822C32.2785 9.22177 33.9726 10.1964 35.8376 10.5963ZM26.8112 1.59997C26.7676 1.34985 26.7341 1.09808 26.7108 0.845357V0H20.1234V26.2514C20.1128 29.3113 17.6382 31.7893 14.5861 31.7893C13.69 31.7893 12.844 31.5758 12.0947 31.1965C13.1066 32.5291 14.7043 33.3893 16.5027 33.3893C19.5543 33.3893 22.0295 30.9115 22.0402 27.8512V1.59997H26.8112ZM16.2669 15.7057V14.2165C15.7165 14.141 15.1615 14.1031 14.6059 14.1034C7.91986 14.1032 2.5 19.5423 2.5 26.2514C2.5 30.4575 4.6301 34.1645 7.86695 36.345C5.73206 34.155 4.41668 31.1574 4.41668 27.8511C4.41668 21.2275 9.69873 15.8419 16.2669 15.7057Z" fill="#00F2EA"/>
</svg>
