<svg width="40" height="40" viewBox="0 0 40 40" fill="none" xmlns="http://www.w3.org/2000/svg">
<g clip-path="url(#clip0_135_16769)">
<path d="M26.6082 17.1417L22.0248 23.0417L18.7498 19.1084L14.1665 25.0001H32.4998L26.6082 17.1417ZM4.99984 8.33341H1.6665V35.0001C1.6665 36.8417 3.15817 38.3334 4.99984 38.3334H31.6665V35.0001H4.99984V8.33341ZM34.9998 1.66675H11.6665C9.82484 1.66675 8.33317 3.15841 8.33317 5.00008V28.3334C8.33317 30.1751 9.82484 31.6667 11.6665 31.6667H34.9998C36.8415 31.6667 38.3332 30.1751 38.3332 28.3334V5.00008C38.3332 3.15841 36.8415 1.66675 34.9998 1.66675ZM34.9998 28.3334H11.6665V5.00008H34.9998V28.3334Z" fill="#5F7FFF"/>
</g>
<defs>
<clipPath id="clip0_135_16769">
<rect width="40" height="40" fill="#0FE0BA"/>
</clipPath>
</defs>
</svg>
