<svg width="40" height="40" viewBox="0 0 40 40" fill="none" xmlns="http://www.w3.org/2000/svg">
<g clip-path="url(#clip0_48_2021)">
<path d="M27.5002 5C24.6002 5 21.8168 6.35 20.0002 8.475C18.1835 6.35 15.4002 5 12.5002 5C7.3585 5 3.3335 9.025 3.3335 14.1667C3.3335 20.4583 9.00016 25.6 17.5835 33.3917L20.0002 35.5833L22.4168 33.3917C31.0002 25.6 36.6668 20.4583 36.6668 14.1667C36.6668 9.025 32.6418 5 27.5002 5ZM20.1752 30.925L20.0002 31.0833L19.8252 30.925C11.9002 23.7333 6.66683 18.9833 6.66683 14.1667C6.66683 10.8417 9.17516 8.33333 12.5002 8.33333C15.0668 8.33333 17.5668 9.99167 18.4418 12.2667H21.5502C22.4335 9.99167 24.9335 8.33333 27.5002 8.33333C30.8252 8.33333 33.3335 10.8417 33.3335 14.1667C33.3335 18.9833 28.1002 23.7333 20.1752 30.925Z" fill="black"/>
</g>
<defs>
<clipPath id="clip0_48_2021">
<rect width="40" height="40" fill="white"/>
</clipPath>
</defs>
</svg>
