<svg width="40" height="40" viewBox="0 0 40 40" fill="none" xmlns="http://www.w3.org/2000/svg">
<g clip-path="url(#clip0_48_2876)">
<path d="M35 36.3001L7.03333 8.33342L5 10.3667L8.4 13.7667C7.375 14.3334 6.66667 15.4167 6.66667 16.6667V33.3334C6.66667 35.1667 8.16667 36.6667 10 36.6667H30C30.3917 36.6667 30.7583 36.5917 31.1 36.4667L32.9667 38.3334L35 36.3001ZM14.8333 10.0001C14.8333 7.15008 17.15 4.83342 20 4.83342C22.85 4.83342 25.1667 7.15008 25.1667 10.0001V13.3334H16.0917L33.3333 30.5751V16.6667C33.3333 14.8334 31.8333 13.3334 30 13.3334H28.3333V10.0001C28.3333 5.40008 24.6 1.66675 20 1.66675C15.7417 1.66675 12.2667 4.88342 11.7667 9.00842L14.8333 12.0751V10.0001Z" fill="black"/>
</g>
<defs>
<clipPath id="clip0_48_2876">
<rect width="40" height="40" fill="white"/>
</clipPath>
</defs>
</svg>
