<svg width="40" height="40" viewBox="0 0 40 40" fill="none" xmlns="http://www.w3.org/2000/svg">
<g clip-path="url(#clip0_159_23253)">
<path d="M19.9998 25.3334C22.9454 25.3334 25.3332 22.9456 25.3332 20.0001C25.3332 17.0546 22.9454 14.6667 19.9998 14.6667C17.0543 14.6667 14.6665 17.0546 14.6665 20.0001C14.6665 22.9456 17.0543 25.3334 19.9998 25.3334Z" fill="#333333"/>
<path d="M15.0002 3.33325L11.9502 6.66659H6.66683C4.82516 6.66659 3.3335 8.15825 3.3335 9.99992V29.9999C3.3335 31.8416 4.82516 33.3333 6.66683 33.3333H33.3335C35.1752 33.3333 36.6668 31.8416 36.6668 29.9999V9.99992C36.6668 8.15825 35.1752 6.66659 33.3335 6.66659H28.0502L25.0002 3.33325H15.0002ZM20.0002 28.3333C15.4002 28.3333 11.6668 24.5999 11.6668 19.9999C11.6668 15.3999 15.4002 11.6666 20.0002 11.6666C24.6002 11.6666 28.3335 15.3999 28.3335 19.9999C28.3335 24.5999 24.6002 28.3333 20.0002 28.3333Z" fill="#333333"/>
</g>
<defs>
<clipPath id="clip0_159_23253">
<rect width="40" height="40" fill="white"/>
</clipPath>
</defs>
</svg>
