<svg width="40" height="40" viewBox="0 0 40 40" fill="none" xmlns="http://www.w3.org/2000/svg">
<path d="M38.3332 9.16667V33.3333C38.3332 37 35.3332 40 31.6665 40H19.4998C17.6998 40 15.9998 39.2833 14.7498 38.0167L1.6665 24.7167C1.6665 24.7167 3.7665 22.6667 3.83317 22.6333C4.19984 22.3167 4.64984 22.15 5.14984 22.15C5.5165 22.15 5.84984 22.25 6.14984 22.4167C6.2165 22.4333 13.3332 26.5167 13.3332 26.5167V6.66667C13.3332 5.28333 14.4498 4.16667 15.8332 4.16667C17.2165 4.16667 18.3332 5.28333 18.3332 6.66667V18.3333H19.9998V2.5C19.9998 1.11667 21.1165 0 22.4998 0C23.8832 0 24.9998 1.11667 24.9998 2.5V18.3333H26.6665V4.16667C26.6665 2.78333 27.7832 1.66667 29.1665 1.66667C30.5498 1.66667 31.6665 2.78333 31.6665 4.16667V18.3333H33.3332V9.16667C33.3332 7.78333 34.4498 6.66667 35.8332 6.66667C37.2165 6.66667 38.3332 7.78333 38.3332 9.16667Z" fill="#5F7FFF"/>
</svg>
