<svg width="40" height="40" viewBox="0 0 40 40" fill="none" xmlns="http://www.w3.org/2000/svg">
<path d="M29.9998 13.3334H28.3332V10.0001C28.3332 5.40008 24.5998 1.66675 19.9998 1.66675C15.3998 1.66675 11.6665 5.40008 11.6665 10.0001V13.3334H9.99984C8.1665 13.3334 6.6665 14.8334 6.6665 16.6667V33.3334C6.6665 35.1667 8.1665 36.6667 9.99984 36.6667H29.9998C31.8332 36.6667 33.3332 35.1667 33.3332 33.3334V16.6667C33.3332 14.8334 31.8332 13.3334 29.9998 13.3334ZM19.9998 28.3334C18.1665 28.3334 16.6665 26.8334 16.6665 25.0001C16.6665 23.1667 18.1665 21.6667 19.9998 21.6667C21.8332 21.6667 23.3332 23.1667 23.3332 25.0001C23.3332 26.8334 21.8332 28.3334 19.9998 28.3334ZM14.9998 13.3334V10.0001C14.9998 7.23341 17.2332 5.00008 19.9998 5.00008C22.7665 5.00008 24.9998 7.23341 24.9998 10.0001V13.3334H14.9998Z" fill="black"/>
</svg>
