<svg width="40" height="40" viewBox="0 0 40 40" fill="none" xmlns="http://www.w3.org/2000/svg">
<path d="M31.9003 21.5667C31.967 21.0667 32.0003 20.55 32.0003 20C32.0003 19.4667 31.967 18.9333 31.8837 18.4333L35.267 15.8C35.567 15.5667 35.6504 15.1167 35.467 14.7833L32.267 9.25C32.067 8.88333 31.6503 8.76667 31.2837 8.88333L27.3003 10.4833C26.467 9.85 25.5837 9.31667 24.6003 8.91667L24.0003 4.68333C23.9337 4.28333 23.6003 4 23.2003 4H16.8003C16.4003 4 16.0837 4.28333 16.017 4.68333L15.417 8.91667C14.4337 9.31667 13.5337 9.86667 12.717 10.4833L8.73368 8.88333C8.36701 8.75 7.95035 8.88333 7.75035 9.25L4.56701 14.7833C4.36701 15.1333 4.43368 15.5667 4.76701 15.8L8.15035 18.4333C8.06701 18.9333 8.00035 19.4833 8.00035 20C8.00035 20.5167 8.03368 21.0667 8.11701 21.5667L4.73368 24.2C4.43368 24.4333 4.35035 24.8833 4.53368 25.2167L7.73368 30.75C7.93368 31.1167 8.35035 31.2333 8.71701 31.1167L12.7003 29.5167C13.5337 30.15 14.417 30.6833 15.4003 31.0833L16.0003 35.3167C16.0837 35.7167 16.4003 36 16.8003 36H23.2003C23.6003 36 23.9337 35.7167 23.9837 35.3167L24.5837 31.0833C25.567 30.6833 26.467 30.15 27.2837 29.5167L31.267 31.1167C31.6337 31.25 32.0503 31.1167 32.2503 30.75L35.4503 25.2167C35.6503 24.85 35.567 24.4333 35.2503 24.2L31.9003 21.5667ZM20.0003 26C16.7003 26 14.0003 23.3 14.0003 20C14.0003 16.7 16.7003 14 20.0003 14C23.3003 14 26.0003 16.7 26.0003 20C26.0003 23.3 23.3003 26 20.0003 26Z" fill="#BDBDBD"/>
</svg>
