<svg width="40" height="40" viewBox="0 0 40 40" fill="none" xmlns="http://www.w3.org/2000/svg">
<path d="M31.6667 5H8.33333C6.5 5 5 6.5 5 8.33333V31.6667C5 33.5 6.5 35 8.33333 35H31.6667C33.5 35 35 33.5 35 31.6667V8.33333C35 6.5 33.5 5 31.6667 5ZM31.6667 31.6667H8.33333V8.33333H31.6667V31.6667Z" fill="black"/>
<path d="M11.6665 20H14.9998V28.3333H11.6665V20Z" fill="black"/>
<path d="M25 11.6667H28.3333V28.3334H25V11.6667Z" fill="black"/>
<path d="M18.333 23.3333H21.6663V28.3333H18.333V23.3333Z" fill="black"/>
<path d="M18.333 16.6667H21.6663V20.0001H18.333V16.6667Z" fill="black"/>
</svg>
