<svg width="40" height="40" viewBox="0 0 40 40" fill="none" xmlns="http://www.w3.org/2000/svg">
<g clip-path="url(#clip0_23_1935)">
<path d="M15 18.3333H11.6667V21.6666H15V18.3333ZM21.6667 18.3333H18.3333V21.6666H21.6667V18.3333ZM28.3333 18.3333H25V21.6666H28.3333V18.3333ZM31.6667 6.66659H30V3.33325H26.6667V6.66659H13.3333V3.33325H10V6.66659H8.33333C6.48333 6.66659 5.01667 8.16658 5.01667 9.99992L5 33.3333C5 35.1666 6.48333 36.6666 8.33333 36.6666H31.6667C33.5 36.6666 35 35.1666 35 33.3333V9.99992C35 8.16658 33.5 6.66659 31.6667 6.66659ZM31.6667 33.3333H8.33333V14.9999H31.6667V33.3333Z" fill="white"/>
</g>
<defs>
<clipPath id="clip0_23_1935">
<rect width="40" height="40" fill="white"/>
</clipPath>
</defs>
</svg>
