<svg width="40" height="40" viewBox="0 0 40 40" fill="none" xmlns="http://www.w3.org/2000/svg">
<g clip-path="url(#clip0_135_16877)">
<path d="M20.0002 25C22.7585 25 24.9835 22.7583 24.9835 20L25.0002 10C25.0002 7.23333 22.7668 5 20.0002 5C17.2418 5 15.0002 7.23333 15.0002 10V20C15.0002 22.7583 17.2418 25 20.0002 25ZM28.8335 20C28.8335 25 24.6085 28.5 20.0002 28.5C15.4002 28.5 11.1668 25 11.1668 20H8.3335C8.3335 25.6917 12.8668 30.3917 18.3335 31.2V36.6667H21.6668V31.2C27.1335 30.3917 31.6668 25.6917 31.6668 20H28.8335Z" fill="white"/>
</g>
<defs>
<clipPath id="clip0_135_16877">
<rect width="40" height="40" fill="white"/>
</clipPath>
</defs>
</svg>
