<svg width="40" height="40" viewBox="0 0 40 40" fill="none" xmlns="http://www.w3.org/2000/svg">
<g clip-path="url(#clip0_29_1598)">
<path d="M21.0832 16.6667C19.7082 12.7833 16.0165 10 11.6665 10C6.1415 10 1.6665 14.475 1.6665 20C1.6665 25.525 6.1415 30 11.6665 30C16.0165 30 19.7082 27.2167 21.0832 23.3333H28.3332V30H34.9998V23.3333H38.3332V16.6667H21.0832ZM11.6665 23.3333C9.82484 23.3333 8.33317 21.8417 8.33317 20C8.33317 18.1583 9.82484 16.6667 11.6665 16.6667C13.5082 16.6667 14.9998 18.1583 14.9998 20C14.9998 21.8417 13.5082 23.3333 11.6665 23.3333Z" fill="white"/>
</g>
<defs>
<clipPath id="clip0_29_1598">
<rect width="40" height="40" fill="white"/>
</clipPath>
</defs>
</svg>
