<svg width="40" height="40" viewBox="0 0 40 40" fill="none" xmlns="http://www.w3.org/2000/svg">
<path d="M34.9998 5H4.99984C3.33317 5 1.6665 6.66667 1.6665 8.33333V31.6667C1.6665 33.5 3.1665 35 4.99984 35H34.9998C36.6665 35 38.3332 33.3333 38.3332 31.6667V8.33333C38.3332 6.66667 36.6665 5 34.9998 5ZM34.9998 31.5333C34.9665 31.5833 34.8998 31.6333 34.8665 31.6667H4.99984V8.46667L5.13317 8.33333H34.8498C34.8998 8.36667 34.9498 8.43333 34.9832 8.46667V31.5333H34.9998ZM18.3332 25.85L14.1665 20.8333L8.33317 28.3333H31.6665L24.1665 18.3333L18.3332 25.85Z" fill="white"/>
</svg>
