<svg width="40" height="40" viewBox="0 0 40 40" fill="none" xmlns="http://www.w3.org/2000/svg">
<path d="M33.3335 6.66675H6.66683C4.8335 6.66675 3.35016 8.16675 3.35016 10.0001L3.3335 30.0001C3.3335 31.8334 4.8335 33.3334 6.66683 33.3334H33.3335C35.1668 33.3334 36.6668 31.8334 36.6668 30.0001V10.0001C36.6668 8.16675 35.1668 6.66675 33.3335 6.66675ZM32.6668 13.7501L20.8835 21.1167C20.3502 21.4501 19.6502 21.4501 19.1168 21.1167L7.3335 13.7501C6.91683 13.4834 6.66683 13.0334 6.66683 12.5501C6.66683 11.4334 7.8835 10.7667 8.8335 11.3501L20.0002 18.3334L31.1668 11.3501C32.1168 10.7667 33.3335 11.4334 33.3335 12.5501C33.3335 13.0334 33.0835 13.4834 32.6668 13.7501Z" fill="white"/>
</svg>
