<svg width="16" height="16" viewBox="0 0 16 16" fill="none" xmlns="http://www.w3.org/2000/svg">
<g clip-path="url(#clip0_108_10410)">
<path d="M6.00016 2L4.78016 3.33333H2.66683C1.9335 3.33333 1.3335 3.93333 1.3335 4.66667V12.6667C1.3335 13.4 1.9335 14 2.66683 14H13.3335C14.0668 14 14.6668 13.4 14.6668 12.6667V4.66667C14.6668 3.93333 14.0668 3.33333 13.3335 3.33333H11.2202L10.0002 2H6.00016ZM8.00016 12C6.16016 12 4.66683 10.5067 4.66683 8.66667C4.66683 6.82667 6.16016 5.33333 8.00016 5.33333C9.84016 5.33333 11.3335 6.82667 11.3335 8.66667C11.3335 10.5067 9.84016 12 8.00016 12Z" fill="#4F4F4F"/>
<path d="M8.00016 11.3333L8.8335 9.5L10.6668 8.66667L8.8335 7.83333L8.00016 6L7.16683 7.83333L5.3335 8.66667L7.16683 9.5L8.00016 11.3333Z" fill="#4F4F4F"/>
</g>
<defs>
<clipPath id="clip0_108_10410">
<rect width="16" height="16" fill="white"/>
</clipPath>
</defs>
</svg>
