<svg width="40" height="40" viewBox="0 0 40 40" fill="none" xmlns="http://www.w3.org/2000/svg">
<g clip-path="url(#clip0_48_2898)">
<path d="M19.9918 3.33325C10.7835 3.33325 3.3335 10.7916 3.3335 19.9999C3.3335 29.2083 10.7835 36.6666 19.9918 36.6666C29.2002 36.6666 36.6668 29.2083 36.6668 19.9999C36.6668 10.7916 29.2002 3.33325 19.9918 3.33325ZM20.0002 33.3333C12.6335 33.3333 6.66683 27.3666 6.66683 19.9999C6.66683 12.6333 12.6335 6.66659 20.0002 6.66659C27.3668 6.66659 33.3335 12.6333 33.3335 19.9999C33.3335 27.3666 27.3668 33.3333 20.0002 33.3333ZM25.8335 18.3333C27.2168 18.3333 28.3335 17.2166 28.3335 15.8333C28.3335 14.4499 27.2168 13.3333 25.8335 13.3333C24.4502 13.3333 23.3335 14.4499 23.3335 15.8333C23.3335 17.2166 24.4502 18.3333 25.8335 18.3333ZM14.1668 18.3333C15.5502 18.3333 16.6668 17.2166 16.6668 15.8333C16.6668 14.4499 15.5502 13.3333 14.1668 13.3333C12.7835 13.3333 11.6668 14.4499 11.6668 15.8333C11.6668 17.2166 12.7835 18.3333 14.1668 18.3333ZM20.0002 29.1666C23.8835 29.1666 27.1752 26.7416 28.5085 23.3333H11.4918C12.8252 26.7416 16.1168 29.1666 20.0002 29.1666Z" fill="#BDBDBD"/>
</g>
<defs>
<clipPath id="clip0_48_2898">
<rect width="40" height="40" fill="white"/>
</clipPath>
</defs>
</svg>
