<svg width="17" height="16" viewBox="0 0 17 16" fill="none" xmlns="http://www.w3.org/2000/svg">
<path d="M12.5001 5.33366H11.8334V4.00033C11.8334 2.16033 10.3401 0.666992 8.50008 0.666992C6.66008 0.666992 5.16675 2.16033 5.16675 4.00033V5.33366H4.50008C3.76675 5.33366 3.16675 5.93366 3.16675 6.66699V13.3337C3.16675 14.067 3.76675 14.667 4.50008 14.667H12.5001C13.2334 14.667 13.8334 14.067 13.8334 13.3337V6.66699C13.8334 5.93366 13.2334 5.33366 12.5001 5.33366ZM8.50008 11.3337C7.76675 11.3337 7.16675 10.7337 7.16675 10.0003C7.16675 9.26699 7.76675 8.66699 8.50008 8.66699C9.23341 8.66699 9.83341 9.26699 9.83341 10.0003C9.83341 10.7337 9.23341 11.3337 8.50008 11.3337ZM6.50008 5.33366V4.00033C6.50008 2.89366 7.39341 2.00033 8.50008 2.00033C9.60675 2.00033 10.5001 2.89366 10.5001 4.00033V5.33366H6.50008Z" fill="#5F7FFF"/>
</svg>
