<svg width="17" height="16" viewBox="0 0 17 16" fill="none" xmlns="http://www.w3.org/2000/svg">
<path d="M12.5001 3.99967H11.1667C11.1667 2.52634 9.97341 1.33301 8.50008 1.33301C7.02675 1.33301 5.83341 2.52634 5.83341 3.99967H4.50008C3.76675 3.99967 3.16675 4.59967 3.16675 5.33301V13.333C3.16675 14.0663 3.76675 14.6663 4.50008 14.6663H12.5001C13.2334 14.6663 13.8334 14.0663 13.8334 13.333V5.33301C13.8334 4.59967 13.2334 3.99967 12.5001 3.99967ZM8.50008 2.66634C9.23341 2.66634 9.83341 3.26634 9.83341 3.99967H7.16675C7.16675 3.26634 7.76675 2.66634 8.50008 2.66634ZM12.5001 13.333H4.50008V5.33301H5.83341V6.66634C5.83341 7.03301 6.13341 7.33301 6.50008 7.33301C6.86675 7.33301 7.16675 7.03301 7.16675 6.66634V5.33301H9.83341V6.66634C9.83341 7.03301 10.1334 7.33301 10.5001 7.33301C10.8667 7.33301 11.1667 7.03301 11.1667 6.66634V5.33301H12.5001V13.333Z" fill="#0FE0BA"/>
</svg>
