<svg width="17" height="16" viewBox="0 0 17 16" fill="none" xmlns="http://www.w3.org/2000/svg">
<path d="M3.16667 8.66667H7.16667C7.53333 8.66667 7.83333 8.36667 7.83333 8V2.66667C7.83333 2.3 7.53333 2 7.16667 2H3.16667C2.8 2 2.5 2.3 2.5 2.66667V8C2.5 8.36667 2.8 8.66667 3.16667 8.66667ZM3.16667 14H7.16667C7.53333 14 7.83333 13.7 7.83333 13.3333V10.6667C7.83333 10.3 7.53333 10 7.16667 10H3.16667C2.8 10 2.5 10.3 2.5 10.6667V13.3333C2.5 13.7 2.8 14 3.16667 14ZM9.83333 14H13.8333C14.2 14 14.5 13.7 14.5 13.3333V8C14.5 7.63333 14.2 7.33333 13.8333 7.33333H9.83333C9.46667 7.33333 9.16667 7.63333 9.16667 8V13.3333C9.16667 13.7 9.46667 14 9.83333 14ZM9.16667 2.66667V5.33333C9.16667 5.7 9.46667 6 9.83333 6H13.8333C14.2 6 14.5 5.7 14.5 5.33333V2.66667C14.5 2.3 14.2 2 13.8333 2H9.83333C9.46667 2 9.16667 2.3 9.16667 2.66667Z" fill="#0FE0BA"/>
</svg>
